<svg viewBox="0 0 100 100" xmlns="http://www.w3.org/2000/svg"><g stroke-miterlimit="10" stroke-width="1.97"><path d="m63.44 57.22-7.26 5.92-7.85-5.92-7.79 5.92-7.33-5.92-7.69 5.92-7.42-5.92-7.73 5.92-7.39-5.92 7.88-6.32-7.88-5.78 7.88-5.67-7.88-6.87 7.88-6.97-7.88-5.57 7.88-5.67-7.88-6.42 7.03-6.32 8.06 6.32 7.69-6.32 7.45 6.32 7.94-6.32 6.97 6.32 7.2-6.32 8.12 6.32-6.16 6.62 6.16 5.7-6.16 6.04 6.16 6.27-6.16 5.68 6.16 6.64-6.16 6.2z" fill="#28282d" stroke="#28282d"/><path d="m72.29 69.53-7.27 5.92-7.85-5.92-7.79 5.92-7.32-5.92-7.7 5.92-7.42-5.92-7.73 5.92-7.39-5.92 7.88-6.33-7.88-5.77 7.88-5.67-7.88-6.87 7.88-6.97-7.88-5.57 7.88-5.67-7.88-6.43 7.03-6.31 8.06 6.31 7.69-6.31 7.46 6.31 7.94-6.31 6.96 6.31 7.21-6.31 8.12 6.31-6.17 6.62 6.17 5.7-6.17 6.05 6.17 6.27-6.17 5.67 6.17 6.65-6.17 6.19z" fill="#f0eee9" stroke="#f0eee9"/><path d="m86.23 80.42-7.27 5.92-7.85-5.92-7.78 5.92-7.33-5.92-7.7 5.92-7.42-5.92-7.72 5.92-7.39-5.92 7.88-6.32-7.88-5.77 7.88-5.68-7.88-6.87 7.88-6.96-7.88-5.58 7.88-5.67-7.88-6.42 7.02-6.32 8.06 6.32 7.7-6.32 7.45 6.32 7.94-6.32 6.96 6.32 7.21-6.32 8.12 6.32-6.17 6.62 6.17 5.7-6.17 6.04 6.17 6.27-6.17 5.68 6.17 6.64-6.17 6.2z" fill="#b7a990" stroke="#b7a990"/><path d="m97.68 91.82-7.27 5.93-7.85-5.93-7.78 5.93-7.33-5.93-7.7 5.93-7.42-5.93-7.72 5.93-7.39-5.93 7.88-6.32-7.88-5.77 7.88-5.67-7.88-6.87 7.88-6.97-7.88-5.57 7.88-5.68-7.88-6.42 7.02-6.32 8.06 6.32 7.7-6.32 7.45 6.32 7.94-6.32 6.96 6.32 7.21-6.32 8.12 6.32-6.17 6.62 6.17 5.7-6.17 6.05 6.17 6.27-6.17 5.67 6.17 6.65-6.17 6.19z" fill="#8d7961" stroke="#8d7961"/></g></svg>